<mxfile host="Electron" modified="2024-05-02T10:29:50.890Z" agent="Mozilla/5.0 (Windows NT 10.0; Win64; x64) AppleWebKit/537.36 (KHTML, like Gecko) draw.io/24.2.5 Chrome/120.0.6099.109 Electron/28.1.0 Safari/537.36" etag="usu4Ims2aui9MaezXRva" version="24.2.5" type="device">
  <diagram name="Pagina-1" id="ZEZJ7vG_agCJgwUqd_yj">
    <mxGraphModel dx="880" dy="532" grid="1" gridSize="10" guides="1" tooltips="1" connect="1" arrows="1" fold="1" page="1" pageScale="1" pageWidth="827" pageHeight="1169" math="0" shadow="0">
      <root>
        <mxCell id="0" />
        <mxCell id="1" parent="0" />
        <mxCell id="AQ_JEi1w0hB8qwyN36sD-11" style="edgeStyle=orthogonalEdgeStyle;rounded=0;orthogonalLoop=1;jettySize=auto;html=1;entryX=0;entryY=0.5;entryDx=0;entryDy=0;" edge="1" parent="1" source="AQ_JEi1w0hB8qwyN36sD-1" target="AQ_JEi1w0hB8qwyN36sD-2">
          <mxGeometry relative="1" as="geometry">
            <Array as="points">
              <mxPoint x="130" y="175" />
            </Array>
          </mxGeometry>
        </mxCell>
        <mxCell id="AQ_JEi1w0hB8qwyN36sD-12" style="edgeStyle=orthogonalEdgeStyle;rounded=0;orthogonalLoop=1;jettySize=auto;html=1;entryX=0;entryY=0.5;entryDx=0;entryDy=0;" edge="1" parent="1" source="AQ_JEi1w0hB8qwyN36sD-1" target="AQ_JEi1w0hB8qwyN36sD-6">
          <mxGeometry relative="1" as="geometry">
            <Array as="points">
              <mxPoint x="130" y="215" />
            </Array>
          </mxGeometry>
        </mxCell>
        <mxCell id="AQ_JEi1w0hB8qwyN36sD-13" style="edgeStyle=orthogonalEdgeStyle;rounded=0;orthogonalLoop=1;jettySize=auto;html=1;entryX=0;entryY=0.5;entryDx=0;entryDy=0;" edge="1" parent="1" source="AQ_JEi1w0hB8qwyN36sD-1" target="AQ_JEi1w0hB8qwyN36sD-8">
          <mxGeometry relative="1" as="geometry">
            <Array as="points">
              <mxPoint x="130" y="255" />
            </Array>
          </mxGeometry>
        </mxCell>
        <mxCell id="AQ_JEi1w0hB8qwyN36sD-29" style="edgeStyle=orthogonalEdgeStyle;rounded=0;orthogonalLoop=1;jettySize=auto;html=1;entryX=0;entryY=0.5;entryDx=0;entryDy=0;endArrow=doubleBlock;endFill=1;" edge="1" parent="1" source="AQ_JEi1w0hB8qwyN36sD-1" target="AQ_JEi1w0hB8qwyN36sD-28">
          <mxGeometry relative="1" as="geometry" />
        </mxCell>
        <mxCell id="AQ_JEi1w0hB8qwyN36sD-36" style="edgeStyle=orthogonalEdgeStyle;rounded=0;orthogonalLoop=1;jettySize=auto;html=1;entryX=0.5;entryY=0;entryDx=0;entryDy=0;endArrow=doubleBlock;endFill=1;" edge="1" parent="1" source="AQ_JEi1w0hB8qwyN36sD-1" target="AQ_JEi1w0hB8qwyN36sD-32">
          <mxGeometry relative="1" as="geometry" />
        </mxCell>
        <mxCell id="AQ_JEi1w0hB8qwyN36sD-1" value="Utente" style="rounded=0;whiteSpace=wrap;html=1;" vertex="1" parent="1">
          <mxGeometry x="40" y="80" width="120" height="60" as="geometry" />
        </mxCell>
        <mxCell id="AQ_JEi1w0hB8qwyN36sD-2" value="" style="ellipse;whiteSpace=wrap;html=1;aspect=fixed;fillColor=#f5f5f5;fontColor=#333333;strokeColor=#666666;" vertex="1" parent="1">
          <mxGeometry x="160" y="160" width="30" height="30" as="geometry" />
        </mxCell>
        <mxCell id="AQ_JEi1w0hB8qwyN36sD-5" value="Nickname" style="text;html=1;align=center;verticalAlign=middle;resizable=0;points=[];autosize=1;strokeColor=none;fillColor=none;" vertex="1" parent="1">
          <mxGeometry x="185" y="160" width="80" height="30" as="geometry" />
        </mxCell>
        <mxCell id="AQ_JEi1w0hB8qwyN36sD-6" value="" style="ellipse;whiteSpace=wrap;html=1;aspect=fixed;" vertex="1" parent="1">
          <mxGeometry x="160" y="200" width="30" height="30" as="geometry" />
        </mxCell>
        <mxCell id="AQ_JEi1w0hB8qwyN36sD-7" value="Password" style="text;html=1;align=center;verticalAlign=middle;resizable=0;points=[];autosize=1;strokeColor=none;fillColor=none;" vertex="1" parent="1">
          <mxGeometry x="185" y="200" width="80" height="30" as="geometry" />
        </mxCell>
        <mxCell id="AQ_JEi1w0hB8qwyN36sD-8" value="" style="ellipse;whiteSpace=wrap;html=1;aspect=fixed;fillColor=#f5f5f5;fontColor=#333333;strokeColor=#666666;" vertex="1" parent="1">
          <mxGeometry x="160" y="240" width="30" height="30" as="geometry" />
        </mxCell>
        <mxCell id="AQ_JEi1w0hB8qwyN36sD-9" value="Email" style="text;html=1;align=center;verticalAlign=middle;resizable=0;points=[];autosize=1;strokeColor=none;fillColor=none;" vertex="1" parent="1">
          <mxGeometry x="190" y="240" width="50" height="30" as="geometry" />
        </mxCell>
        <mxCell id="AQ_JEi1w0hB8qwyN36sD-20" style="edgeStyle=orthogonalEdgeStyle;rounded=0;orthogonalLoop=1;jettySize=auto;html=1;entryX=0;entryY=0.5;entryDx=0;entryDy=0;" edge="1" parent="1" source="AQ_JEi1w0hB8qwyN36sD-14" target="AQ_JEi1w0hB8qwyN36sD-16">
          <mxGeometry relative="1" as="geometry">
            <Array as="points">
              <mxPoint x="690" y="175" />
            </Array>
          </mxGeometry>
        </mxCell>
        <mxCell id="AQ_JEi1w0hB8qwyN36sD-21" style="edgeStyle=orthogonalEdgeStyle;rounded=0;orthogonalLoop=1;jettySize=auto;html=1;entryX=0;entryY=0.5;entryDx=0;entryDy=0;" edge="1" parent="1" source="AQ_JEi1w0hB8qwyN36sD-14" target="AQ_JEi1w0hB8qwyN36sD-18">
          <mxGeometry relative="1" as="geometry">
            <Array as="points">
              <mxPoint x="690" y="215" />
            </Array>
          </mxGeometry>
        </mxCell>
        <mxCell id="AQ_JEi1w0hB8qwyN36sD-30" style="edgeStyle=orthogonalEdgeStyle;rounded=0;orthogonalLoop=1;jettySize=auto;html=1;entryX=1;entryY=0.5;entryDx=0;entryDy=0;endArrow=doubleBlock;endFill=1;" edge="1" parent="1" source="AQ_JEi1w0hB8qwyN36sD-14" target="AQ_JEi1w0hB8qwyN36sD-28">
          <mxGeometry relative="1" as="geometry" />
        </mxCell>
        <mxCell id="AQ_JEi1w0hB8qwyN36sD-37" style="edgeStyle=orthogonalEdgeStyle;rounded=0;orthogonalLoop=1;jettySize=auto;html=1;entryX=0.5;entryY=0;entryDx=0;entryDy=0;endArrow=doubleBlock;endFill=1;" edge="1" parent="1" source="AQ_JEi1w0hB8qwyN36sD-14" target="AQ_JEi1w0hB8qwyN36sD-33">
          <mxGeometry relative="1" as="geometry" />
        </mxCell>
        <mxCell id="AQ_JEi1w0hB8qwyN36sD-14" value="Stanza" style="rounded=0;whiteSpace=wrap;html=1;" vertex="1" parent="1">
          <mxGeometry x="597" y="80" width="120" height="60" as="geometry" />
        </mxCell>
        <mxCell id="AQ_JEi1w0hB8qwyN36sD-16" value="" style="ellipse;whiteSpace=wrap;html=1;aspect=fixed;fillColor=#f5f5f5;fontColor=#333333;strokeColor=#666666;" vertex="1" parent="1">
          <mxGeometry x="717" y="160" width="30" height="30" as="geometry" />
        </mxCell>
        <mxCell id="AQ_JEi1w0hB8qwyN36sD-17" value="Titolo" style="text;html=1;align=center;verticalAlign=middle;resizable=0;points=[];autosize=1;strokeColor=none;fillColor=none;" vertex="1" parent="1">
          <mxGeometry x="743" y="160" width="50" height="30" as="geometry" />
        </mxCell>
        <mxCell id="AQ_JEi1w0hB8qwyN36sD-18" value="" style="ellipse;whiteSpace=wrap;html=1;aspect=fixed;" vertex="1" parent="1">
          <mxGeometry x="717" y="200" width="30" height="30" as="geometry" />
        </mxCell>
        <mxCell id="AQ_JEi1w0hB8qwyN36sD-19" value="Descrizione" style="text;html=1;align=center;verticalAlign=middle;resizable=0;points=[];autosize=1;strokeColor=none;fillColor=none;" vertex="1" parent="1">
          <mxGeometry x="737" y="200" width="90" height="30" as="geometry" />
        </mxCell>
        <mxCell id="AQ_JEi1w0hB8qwyN36sD-27" style="edgeStyle=orthogonalEdgeStyle;rounded=0;orthogonalLoop=1;jettySize=auto;html=1;entryX=0;entryY=0.5;entryDx=0;entryDy=0;" edge="1" parent="1" source="AQ_JEi1w0hB8qwyN36sD-22" target="AQ_JEi1w0hB8qwyN36sD-25">
          <mxGeometry relative="1" as="geometry" />
        </mxCell>
        <mxCell id="AQ_JEi1w0hB8qwyN36sD-34" style="edgeStyle=orthogonalEdgeStyle;rounded=0;orthogonalLoop=1;jettySize=auto;html=1;entryX=0;entryY=0.5;entryDx=0;entryDy=0;" edge="1" parent="1" source="AQ_JEi1w0hB8qwyN36sD-22" target="AQ_JEi1w0hB8qwyN36sD-33">
          <mxGeometry relative="1" as="geometry" />
        </mxCell>
        <mxCell id="AQ_JEi1w0hB8qwyN36sD-35" style="edgeStyle=orthogonalEdgeStyle;rounded=0;orthogonalLoop=1;jettySize=auto;html=1;entryX=1;entryY=0.5;entryDx=0;entryDy=0;" edge="1" parent="1" source="AQ_JEi1w0hB8qwyN36sD-22" target="AQ_JEi1w0hB8qwyN36sD-32">
          <mxGeometry relative="1" as="geometry" />
        </mxCell>
        <mxCell id="AQ_JEi1w0hB8qwyN36sD-22" value="Messaggio" style="rounded=0;whiteSpace=wrap;html=1;" vertex="1" parent="1">
          <mxGeometry x="320" y="400" width="120" height="60" as="geometry" />
        </mxCell>
        <mxCell id="AQ_JEi1w0hB8qwyN36sD-25" value="" style="ellipse;whiteSpace=wrap;html=1;aspect=fixed;" vertex="1" parent="1">
          <mxGeometry x="440" y="480" width="30" height="30" as="geometry" />
        </mxCell>
        <mxCell id="AQ_JEi1w0hB8qwyN36sD-26" value="Data" style="text;html=1;align=center;verticalAlign=middle;resizable=0;points=[];autosize=1;strokeColor=none;fillColor=none;" vertex="1" parent="1">
          <mxGeometry x="470" y="480" width="50" height="30" as="geometry" />
        </mxCell>
        <mxCell id="AQ_JEi1w0hB8qwyN36sD-28" value="Partecipa" style="rhombus;whiteSpace=wrap;html=1;" vertex="1" parent="1">
          <mxGeometry x="340" y="70" width="80" height="80" as="geometry" />
        </mxCell>
        <mxCell id="AQ_JEi1w0hB8qwyN36sD-31" value="" style="endArrow=none;html=1;rounded=0;" edge="1" parent="1">
          <mxGeometry width="50" height="50" relative="1" as="geometry">
            <mxPoint x="180" y="120" as="sourcePoint" />
            <mxPoint x="180" y="100" as="targetPoint" />
          </mxGeometry>
        </mxCell>
        <mxCell id="AQ_JEi1w0hB8qwyN36sD-32" value="Spedisce" style="rhombus;whiteSpace=wrap;html=1;" vertex="1" parent="1">
          <mxGeometry x="60" y="390" width="80" height="80" as="geometry" />
        </mxCell>
        <mxCell id="AQ_JEi1w0hB8qwyN36sD-33" value="Compone" style="rhombus;whiteSpace=wrap;html=1;" vertex="1" parent="1">
          <mxGeometry x="617" y="390" width="80" height="80" as="geometry" />
        </mxCell>
        <mxCell id="AQ_JEi1w0hB8qwyN36sD-38" value="" style="endArrow=none;html=1;rounded=0;" edge="1" parent="1">
          <mxGeometry width="50" height="50" relative="1" as="geometry">
            <mxPoint x="647" y="159.52" as="sourcePoint" />
            <mxPoint x="667" y="159.52" as="targetPoint" />
          </mxGeometry>
        </mxCell>
        <mxCell id="AQ_JEi1w0hB8qwyN36sD-39" value="" style="endArrow=none;html=1;rounded=0;" edge="1" parent="1">
          <mxGeometry width="50" height="50" relative="1" as="geometry">
            <mxPoint x="90" y="160" as="sourcePoint" />
            <mxPoint x="110" y="160" as="targetPoint" />
          </mxGeometry>
        </mxCell>
      </root>
    </mxGraphModel>
  </diagram>
</mxfile>
